<svg width="40" height="36" viewBox="0 0 40 36" fill="none" xmlns="http://www.w3.org/2000/svg">
<path d="M15.4008 21.2871L13.33 27.7953L12.7691 29.5551L10.9374 35.3127H3.93171L6.30094 27.7953H0L1.31085 21.2871H8.39512L9.5513 17.6555L10.1365 15.7829H17.1522L16.557 17.6555L15.9735 19.5273L15.4242 21.2871H15.4008ZM34.684 7.51648H32.8623L35.2307 0H28.225L26.3934 5.7567L25.8324 7.51648L23.7608 14.0247H23.7391L23.1898 15.7845L22.6063 17.6563L22.0111 19.529H29.0276L29.612 17.6563L30.7682 14.0247H37.9043L39.1633 7.51648H34.684ZM28.4775 21.2871H17.2459L17.0778 21.8213L15.1784 27.7953H19.3559L18.8008 29.5551L16.9859 35.3127H23.9915L25.8232 29.5551L26.3842 27.7953H33.4174L34.6765 21.2871H28.4775ZM10.6849 14.0231H21.9174L22.0855 13.4889L23.9849 7.51564H19.8074L20.3625 5.75503L22.1774 0H15.1717L13.3384 5.7567L12.7774 7.51648H5.79599L4.48514 14.0247H10.6849V14.0231Z" fill="black"/>
</svg>
